# xmcd
#
# Track frame offsets:
#	150
#	19196
#	29519
#	46749
#	62542
#	76541
#	90528
#	109948
#	121958
#	133260
#	148251
#
# Disc length: 2222 seconds
#
# Revision: 1
# Processed by: cddbd v1.5.2PL0 Copyright (c) Steve Scherf et al.
# Submitted via: audiograbber 1.83.01
#
DISCID=8e08ac0b
DTITLE=Alain Charron - The Beach Cowboy
DYEAR=1900
DGENRE=Country
TTITLE0=Assis Seul Sur La Plage (Alain Charron-Alain Charron)
TTITLE1=Le Stress Du Chanteur (Alain Charron-Alain Charron)
TTITLE2=Ta As Brise Mon Coeur (Alain Charron-Alain Charron)
TTITLE3=Un Clown De Rodeo (Alain Charron-Alain Charron)
TTITLE4=Viens T'amuser Au Festival Country (Alain Charron-Alain Charron)
TTITLE5=Les Trois Cloches De Ma Vie (Louis Charles Larouche-Louis Charles Larou
TTITLE5=che)
TTITLE6=Mal D'amour (Claude Michel-Claude Michel)
TTITLE7=La Neige Tombe (Leo Benoit-Leo Benoit)
TTITLE8=Au Petit Bistro Chez Pierre (Guy Therrien-Guy Therrien)
TTITLE9=Je Veux Mourir Aupres De Toi (Mario Mercier-Mario Mercier)
TTITLE10=Aux Portes Du Paradis (Christian Houle-Christian Houle)
EXTD=
EXTT0=
EXTT1=
EXTT2=
EXTT3=
EXTT4=
EXTT5=
EXTT6=
EXTT7=
EXTT8=
EXTT9=
EXTT10=
PLAYORDER=
